<svg xmlns="http://www.w3.org/2000/svg" viewBox="0 0 64 64" fill="none">
  <rect width="64" height="64" rx="18" fill="#050A22" />
  <path
    d="M20.662 40V24.727h5.73c4.89 0 7.787 2.99 7.787 7.627 0 4.633-2.898 7.646-7.787 7.646h-5.73Zm4.834-3.855h.665c2.31 0 3.936-1.373 3.936-3.791 0-2.42-1.627-3.773-3.936-3.773h-.665v7.564ZM42.482 40c-4.578 0-7.658-3.122-7.658-7.627s3.08-7.627 7.658-7.627c4.562 0 7.642 3.122 7.642 7.627S47.044 40 42.482 40Zm0-3.954c2.035 0 3.482-1.535 3.482-3.673s-1.447-3.672-3.482-3.672c-2.052 0-3.5 1.534-3.5 3.672s1.448 3.673 3.5 3.673Z"
    fill="#fff"
  />
</svg>
