<svg xmlns="http://www.w3.org/2000/svg" viewBox="0 0 64 64" fill="none">
  <rect width="64" height="64" rx="18" fill="#FD4F00" />
  <path
    d="M17 23.5c0-3.59 2.91-6.5 6.5-6.5h17c3.59 0 6.5 2.91 6.5 6.5v17c0 3.59-2.91 6.5-6.5 6.5h-17A6.5 6.5 0 0 1 17 40.5v-17Z"
    fill="#fff"
    opacity=".18"
  />
  <path
    d="M20 31.5c0-1.933 1.567-3.5 3.5-3.5h4.879c1.036 0 2.019.459 2.684 1.252l1.873 2.233A3.5 3.5 0 0 0 35.62 32.7H40.5c1.933 0 3.5 1.567 3.5 3.5v4.3c0 1.933-1.567 3.5-3.5 3.5h-17c-1.933 0-3.5-1.567-3.5-3.5v-9Z"
    fill="#fff"
  />
  <path
    d="M20 27.5c0-1.933 1.567-3.5 3.5-3.5h4.05c.744 0 1.453.316 1.95.869l1.322 1.47A3.5 3.5 0 0 0 33.422 27.5H40.5c1.933 0 3.5 1.567 3.5 3.5v.25h-8.38a5.5 5.5 0 0 1-4.215-1.966l-1.874-2.233A1.5 1.5 0 0 0 28.38 26.5H23.5c-1.29 0-2.417.699-3.023 1.738A3.478 3.478 0 0 1 20 27.5Z"
    fill="#fff"
    opacity=".82"
  />
</svg>
